PathFileType	4	(X/Y/Z)	D:\Studies\Accel_Decel\Raw_data\p_01\static/static_01.trc
DataRate	CameraRate	NumFrames	NumMarkers	Units	OrigDataRate	OrigDataStartFrame	OrigNumFrames
200.000000	200.000000	4	63	mm	200.000000	740	987
Frame#	Time	C7			Sternum			MidT			L.ASIS			R.ASIS			L.PSIS			R.PSIS			L.Acromion			L.Elbow.Med			L.Elbow.Lat			L.Radius			L.Ulna			R.Acromion			R.Elbow.Med			R.Elbow.Lat			R.Ulna			R.Radius			L.Thigh.Post.Sup			L.Thigh.Ant.Sup			L.Thigh.Post.Inf			L.Thigh.Ant.Inf			L.Knee.Med			L.Knee.Lat			L.Shank.Post.Sup			L.Shank.Ant.Sup			L.Shank.Post.Inf			L.Shank.Ant.Inf			L.Ankle.Med			L.Ankle.Lat			L.Heel.Sup			L.Heel.Inf			L.Heel. Med			L.Heel.Lat			L.Midfoot.Med			L.Midfoot.Int			L.Midfoot.Lat			L.MTP1			L.MTP2			L.MTP5			L.Toe			R.Thigh.Post.Sup			R.Thigh.Ant.Sup			R.Thigh.Post.Inf			R.Thigh.Ant.Inf			R.Knee.Med			R.Knee.Lat			R.Shank.Post.Sup			R.Shank.Ant.Sup			R.Shank.Post.Inf			R.Shank.Ant.Inf			R.Ankle.Med			R.Ankle.Lat			R.Heel.Sup			R.Heel.Inf			R.Heel.Med			R.Heel.Lat			R.Midfoot.Med			R.Midfoot.Int			R.Midfoot.Lat			R.MTP1			R.MTP2			R.MTP5			R.Toe			
		X1	Y1	Z1	X2	Y2	Z2	X3	Y3	Z3	X4	Y4	Z4	X5	Y5	Z5	X6	Y6	Z6	X7	Y7	Z7	X8	Y8	Z8	X9	Y9	Z9	X10	Y10	Z10	X11	Y11	Z11	X12	Y12	Z12	X13	Y13	Z13	X14	Y14	Z14	X15	Y15	Z15	X16	Y16	Z16	X17	Y17	Z17	X18	Y18	Z18	X19	Y19	Z19	X20	Y20	Z20	X21	Y21	Z21	X22	Y22	Z22	X23	Y23	Z23	X24	Y24	Z24	X25	Y25	Z25	X26	Y26	Z26	X27	Y27	Z27	X28	Y28	Z28	X29	Y29	Z29	X30	Y30	Z30	X31	Y31	Z31	X32	Y32	Z32	X33	Y33	Z33	X34	Y34	Z34	X35	Y35	Z35	X36	Y36	Z36	X37	Y37	Z37	X38	Y38	Z38	X39	Y39	Z39	X40	Y40	Z40	X41	Y41	Z41	X42	Y42	Z42	X43	Y43	Z43	X44	Y44	Z44	X45	Y45	Z45	X46	Y46	Z46	X47	Y47	Z47	X48	Y48	Z48	X49	Y49	Z49	X50	Y50	Z50	X51	Y51	Z51	X52	Y52	Z52	X53	Y53	Z53	X54	Y54	Z54	X55	Y55	Z55	X56	Y56	Z56	X57	Y57	Z57	X58	Y58	Z58	X59	Y59	Z59	X60	Y60	Z60	X61	Y61	Z61	X62	Y62	Z62	X63	Y63	Z63	

741	3.7	151.4348144531251	1411.41015625	237.9758911132814	305.4697875976564	1353.827880859375	233.5501098632814	107.8115005493165	1255.576538085938	237.6348876953126	303.5429687500001	947.5346069335942	116.3430480957032	307.2030029296876	950.4697265625005	335.742156982422	139.5857391357422	969.0578002929692	188.0596923828126	139.3792419433594	966.4801635742192	269.6448669433595	220.5321350097657	1396.80859375	53.51852035522464	240.6964569091798	1080.353515625	59.15407943725589	217.5992431640626	1122.48876953125	-38.95296096801759	287.7164916992189	908.1860351562505	-117.6193237304688	243.5934600830079	870.102416992188	-58.95313262939456	217.7548675537111	1382.0234375	421.1804809570315	240.6135559082032	1062.03955078125	412.4278259277346	220.7660369873048	1093.148071289063	519.862243652344	251.4177246093751	846.612426757813	516.821960449219	290.769256591797	877.7841796875005	584.1328125000002	196.8567657470704	701.4645996093752	55.64887619018558	269.7178344726564	700.5645751953127	40.18148040771486	194.8097991943361	597.1038818359377	61.55789566040042	257.2905883789064	611.947937011719	43.33792877197267	259.3490600585939	480.2220153808596	175.8316650390626	220.3670806884767	502.2073059082034	60.30992507934573	154.1148834228516	309.3689270019532	45.57458496093751	234.796844482422	297.1731567382814	46.56657791137697	157.319320678711	248.1170806884767	46.97498321533205	217.9998016357423	219.9555816650392	48.44367980957034	201.7411499023439	113.9679031372071	139.5365447998047	182.4082489013672	101.0906600952149	49.95630645751956	117.275749206543	79.93687438964847	101.3581237792969	111.8054656982422	49.20401000976565	97.56101989746099	144.2921295166016	49.58781814575198	138.7397155761719	132.9635620117188	44.93865203857423	56.85394287109378	243.8403930664064	88.48846435546878	138.3755340576172	277.616180419922	109.9854965209962	88.63950347900393	221.2309722900392	84.89665222167972	33.472713470459	328.5249328613282	62.26118850708011	119.498878479004	336.0776977539064	74.75621032714847	86.21533966064456	316.1157836914064	59.07077407836917	21.67121505737305	374.500457763672	67.8632507324219	80.81439208984378	176.1700286865235	711.174743652344	391.244567871094	246.160125732422	708.360046386719	419.2865295410159	183.2346801757813	625.379577636719	406.8954162597659	242.1939392089845	603.1494140625002	420.1920166015627	248.3774414062501	484.222351074219	292.3342590332032	219.0145568847657	493.576599121094	408.174499511719	142.9460601806641	271.6906127929689	407.7734680175784	205.6470947265626	286.5732421875001	423.5481262207034	135.9827117919922	211.1043548583986	389.4272155761721	208.060028076172	206.5125122070314	411.6176757812502	202.5456085205079	121.5009307861329	317.2552795410157	175.2489929199219	109.4436874389649	402.3151855468752	120.4843673706055	83.95245361328128	349.6632080078126	113.2430419921876	47.75698089599611	352.4892578125001	159.8814239501954	39.69223785400392	305.4644165039064	142.0261383056641	47.29643630981447	396.4441833496096	241.770965576172	88.0170822143555	312.2988586425782	280.4992980957032	108.6580963134766	362.9966125488282	225.0826416015626	84.2151794433594	416.9892883300784	318.9928588867189	65.31144714355472	325.2634582519532	328.7811279296876	77.50577545166018	369.3309020996095	294.7073669433595	46.26794815063478	433.2173767089846	373.2325744628907	71.45772552490237	371.3939514160157	
742	3.705	151.4688873291016	1411.408203125	237.9512939453126	305.5101013183595	1353.833984375	233.5602416992189	107.8414688110352	1255.56982421875	237.6351470947267	303.5281066894532	947.5142211914067	116.3628005981446	307.2192382812501	950.4721679687505	335.7411193847657	139.6867370605469	969.0317993164067	188.0756530761719	139.4218292236329	966.4675903320317	269.6422729492189	220.5854797363282	1396.822387695313	53.50881576538089	240.6835937500001	1080.353881835938	59.13282012939456	217.6517028808595	1122.498168945313	-38.9652671813965	287.754364013672	908.177368164063	-117.6102981567383	243.6684875488282	870.098510742188	-58.92314147949222	217.7826080322267	1382.034912109375	421.1844787597659	240.5379028320314	1062.040283203125	412.4136047363284	220.7544708251954	1093.155883789063	519.8457031250002	251.3782653808595	846.5983276367192	516.8047485351565	290.7143554687501	877.7780151367192	584.1282348632815	196.8559417724611	701.4243164062502	55.68098831176761	269.7027587890626	700.5618896484377	40.13784027099611	194.7733001708986	597.0881958007815	61.57663726806643	257.1823120117189	611.9836425781252	43.27944183349611	259.3074340820314	480.2336730957034	175.8406219482422	220.3307037353517	502.2355957031252	60.30487442016604	154.1193847656251	309.311492919922	45.62984085083009	234.8210754394532	297.2144470214845	46.58320236206056	157.3160095214844	248.0945739746095	46.938289642334	217.961151123047	220.0097961425782	48.42261123657229	201.7501831054689	113.9754714965821	139.5453643798829	182.4218292236329	101.0814437866212	49.95954513549808	117.2977523803712	79.93531036376956	101.3439865112305	111.7863159179688	49.20569610595706	97.54759979248053	144.3415222167969	49.51189041137698	138.7843017578126	133.0006713867188	44.89281463623048	56.89146804809573	243.8194580078126	88.48148345947268	138.3694152832032	277.596160888672	109.9886703491212	88.63220977783206	221.3343505859376	84.76694488525393	33.51587295532228	328.3024291992189	62.26539993286136	119.3373184204102	336.0914001464845	74.76810455322268	86.20526885986331	316.117889404297	59.04021453857425	21.66520881652833	374.5168457031251	67.88520812988284	80.81693267822268	176.1972961425782	711.1761474609377	391.2769775390627	246.1151123046876	708.330749511719	419.2772521972659	183.3198394775391	625.4053955078127	407.013366699219	242.1390838623048	603.0364379882815	420.2477111816409	248.3742828369142	484.204528808594	292.3404235839845	219.0099487304689	493.5910644531252	408.1756896972659	142.9618072509766	271.6880493164064	407.7633056640627	205.6761779785157	286.6037902832032	423.5642089843752	135.9568023681641	211.0282745361329	389.4264831542971	208.0876464843751	206.4930725097657	411.6396179199221	202.5579223632814	121.5039672851563	317.2435913085939	175.2350006103516	109.4357681274415	402.3023681640627	120.4927139282227	83.94456481933597	349.6580505371095	113.2398071289063	47.755672454834	352.4833374023439	159.9153594970704	39.67903518676759	305.4315490722657	142.0317077636719	47.28038787841798	396.4273376464846	241.772430419922	88.00058746337893	312.2922973632814	280.2622070312501	108.5329666137696	363.0397033691407	225.0883636474611	84.20935058593753	416.9688110351565	318.949432373047	65.33306121826175	325.1961669921876	328.7876892089845	77.5140075683594	369.327850341797	294.6910095214845	46.25627899169923	433.1943359375002	373.2290649414064	71.46157836914065	371.3875427246095	
743	3.71	151.5108795166016	1411.385131835938	237.9548339843751	305.5585327148439	1353.830078125	233.5809631347657	107.8507080078126	1255.562255859375	237.5960540771486	303.5466918945314	947.498413085938	116.374366760254	307.2721557617189	950.4806518554692	335.7650451660157	139.6178436279297	969.0558471679692	188.0545959472657	139.4199523925782	966.4622192382817	269.6372070312501	220.6254272460939	1396.83056640625	53.50944900512698	240.7432556152345	1080.356567382813	59.15898513793948	217.6882629394532	1122.517456054688	-38.97624969482423	287.8161010742189	908.1917114257817	-117.6001739501954	243.6942901611329	870.1012573242192	-58.91518020629886	217.7942657470704	1382.026733398438	421.1769714355471	240.5362854003907	1062.021606445313	412.4026489257815	220.7620239257814	1093.160522460938	519.8546142578127	251.3376007080079	846.5930786132817	516.7797851562502	290.6625061035157	877.763061523438	584.1258544921877	196.8236083984376	701.4360961914065	55.68062210083011	269.7102355957032	700.5422973632815	40.16114425659181	195.1487121582032	597.0081787109377	61.72354125976565	257.2109985351564	611.9420166015627	43.28439712524415	259.3077087402345	480.2303771972659	175.8405914306641	220.3056793212892	502.1996154785159	60.29310607910159	154.1020050048829	309.3348083496095	45.60636520385744	234.8266906738282	297.2030639648439	46.56148529052736	157.2896575927735	248.1099090576173	46.9484214782715	217.9849853515626	219.9145507812501	48.45365142822268	201.7682342529298	113.9996719360352	139.5401458740235	182.4017028808594	101.0676727294922	49.94129562377933	117.2918853759766	79.92354583740237	101.3286819458008	111.7876358032227	49.18569183349612	97.53215026855474	144.3306579589844	49.49691009521487	138.7593536376954	132.9698028564454	44.9141082763672	56.82664871215823	243.8566436767579	88.4858093261719	138.371078491211	277.6138610839845	109.9839248657227	88.619987487793	221.2317504882814	84.89499664306643	33.46043395996095	328.3522033691407	62.28479766845706	119.3303833007813	336.0878295898439	74.7538986206055	86.19794464111331	316.1312255859376	59.0527038574219	21.65222167968751	374.5028381347657	67.86253356933597	80.80474090576175	176.1697540283204	711.2338867187502	391.1847839355471	246.1720275878907	708.3238525390627	419.2882080078127	183.2051239013672	625.3369140625002	406.8551025390627	242.2321166992189	603.070251464844	420.2791748046877	248.3369140625001	484.2021789550784	292.3154907226564	218.9898223876954	493.5831604003909	408.1785583496096	142.9360656738282	271.6784057617189	407.723083496094	205.6659088134767	286.593963623047	423.5450134277346	136.0001525878907	211.089813232422	389.4270324707034	208.0970306396486	206.5100097656251	411.6270141601565	202.5484313964845	121.4930114746094	317.2318115234376	175.2449493408204	109.415382385254	402.2923583984377	120.4805755615235	83.95046234130862	349.6544799804689	113.2684707641602	47.69934082031251	352.4623107910157	159.9003601074219	39.66226196289064	305.4309082031251	142.035873413086	47.27512741088869	396.407653808594	241.7555236816407	88.00528717041018	312.257293701172	280.5038146972657	108.6354598999024	362.9779357910157	225.0892028808595	84.21162414550784	416.9701232910159	318.9805908203126	65.3080978393555	325.257781982422	328.7726135253907	77.50610351562503	369.3170776367189	294.6988525390626	46.25948715209962	433.1921997070315	373.2087402343751	71.44741821289065	371.3694763183595	
744	3.715	151.5346679687501	1411.37841796875	237.9445037841798	305.5936584472657	1353.822265625	233.5837402343751	107.8634033203126	1255.54248046875	237.6006622314454	303.5247802734376	947.4859008789067	116.3474273681641	307.2608032226564	950.4841918945317	335.7606811523439	139.6509399414063	969.010620117188	188.0719146728516	139.4151916503907	966.4360961914067	269.6504211425782	220.649871826172	1396.863647460938	53.48926925659183	240.727264404297	1080.36376953125	59.16958236694339	217.7207946777345	1122.5205078125	-38.9504737854004	287.8658447265626	908.1799926757817	-117.5696868896485	243.6820220947267	870.1088256835942	-58.94207000732425	217.7954101562501	1382.027099609375	421.1889343261721	240.5007781982423	1062.02734375	412.3990478515627	220.734588623047	1093.154052734375	519.845153808594	251.2971191406251	846.5732421875005	516.7891845703127	290.6223754882814	877.7614135742192	584.1158447265627	196.8049926757814	701.3792114257815	55.63490295410159	269.7807006835939	700.422546386719	40.42144775390626	194.7989959716798	597.060974121094	61.58349227905276	257.1678161621095	611.9412841796877	43.31251144409181	259.2976074218751	480.2337951660159	175.8406982421876	220.2977752685548	502.1789245605471	60.31328964233401	154.1477050781251	309.3160095214845	45.63070297241212	234.7650909423829	297.1961364746095	46.57374572753908	157.2900848388672	248.0792846679689	46.9330520629883	217.9809875488282	219.9381866455079	48.46237564086917	201.7530822753907	113.9724578857422	139.5327606201172	182.3934173583985	101.0588760375977	49.94313812255862	117.3756866455079	79.86171722412112	101.2880935668946	111.820671081543	49.15343856811526	97.55449676513678	144.3319854736329	49.47602081298831	138.7491912841797	132.9638671875001	44.89038848876955	56.82084655761722	243.8806762695314	88.50432586669925	138.3826599121094	277.6373901367189	109.9749374389649	88.62287902832034	221.2108612060548	84.86865234375003	33.45955276489259	328.3590698242189	62.28123855590823	119.3238983154297	336.0928039550782	74.74562072753909	86.17924499511722	316.1223144531251	59.03205108642581	21.64564514160157	374.5069274902345	67.84400939941409	80.79045867919925	176.0957183837891	711.1755371093752	391.2130126953127	246.1569671630861	708.3203735351565	419.2666015625002	183.2654113769532	625.3215332031252	406.9248046875002	242.2273101806642	603.0394287109377	420.2967529296877	248.2957763671876	484.1791992187502	292.3049926757814	218.9701690673829	493.570983886719	408.1654968261721	142.9124450683594	271.6833801269532	407.6991882324221	205.6477508544923	286.5721435546876	423.5245056152346	135.9785461425782	211.0746459960939	389.4464416503909	208.1375885009767	206.5173492431642	411.6658020019534	202.5248107910157	121.4527206420899	317.227264404297	175.2486877441407	109.3944168090821	402.2975769042971	120.5083465576172	83.87261962890628	349.6378173828126	113.2461547851563	47.70643997192384	352.4594726562501	159.8407745361329	39.66287994384767	305.428680419922	142.0385131835938	47.26765441894533	396.4206542968752	241.7375640869142	87.98532867431643	312.2624816894532	280.4479980468751	108.6193313598633	362.930145263672	225.094940185547	84.21421813964847	416.9762878417971	318.9432373046876	65.3236999511719	325.1926574707032	328.7790832519532	77.50318908691409	369.3196411132814	294.6878967285157	46.27886962890626	433.2001647949221	373.2172241210939	71.44053649902347	371.3751831054689	
